<svg width="1111" height="873" viewBox="0 0 1111 873" fill="none" xmlns="http://www.w3.org/2000/svg">
<path d="M740.768 478.471C876.521 497.921 1123.71 454.145 1026.47 123.444" stroke="#5EE453" stroke-width="98" stroke-linecap="round" stroke-linejoin="round"/>
<rect x="231.823" y="866.281" width="364.807" height="110.163" rx="55.0814" transform="rotate(-90 231.823 866.281)" fill="#5EE453" stroke="white" stroke-width="7"/>
<rect x="668.45" y="869.036" width="319.966" height="110.163" rx="55.0814" transform="rotate(-90 668.45 869.036)" fill="#5EE453" stroke="white" stroke-width="7"/>
<path d="M634.582 498.42C648.281 510.162 657.309 527.733 657.309 550.849L634.582 498.42ZM634.582 498.42C620.957 486.74 602.91 480.985 584.993 480.985C567.077 480.985 549.03 486.74 535.405 498.419C521.706 510.162 512.678 527.733 512.678 550.848L634.582 498.42ZM231.823 550.851C231.823 550.85 231.823 550.849 231.823 550.849C231.825 358.82 394.828 197.681 584.993 197.681C775.159 197.681 938.162 358.82 938.164 550.848L231.823 550.851ZM231.823 550.851L231.823 550.857M231.823 550.851L231.823 550.857M249.331 610.258C266.682 639.762 301.506 669.714 372.25 669.714C442.995 669.714 477.818 639.762 495.17 610.258C503.913 595.393 508.299 580.497 510.494 569.297C511.591 563.704 512.137 559.052 512.409 555.816C512.545 554.198 512.612 552.936 512.645 552.088C512.662 551.664 512.67 551.344 512.674 551.136C512.676 551.031 512.677 550.955 512.677 550.907L512.678 550.857L512.678 550.851L249.331 610.258ZM249.331 610.258C240.588 595.393 236.202 580.497 234.007 569.297M249.331 610.258L234.007 569.297M234.007 569.297C232.91 563.704 232.364 559.052 232.092 555.816M234.007 569.297L232.092 555.816M232.092 555.816C231.956 554.198 231.889 552.936 231.856 552.088M232.092 555.816L231.856 552.088M231.856 552.088C231.839 551.664 231.831 551.344 231.827 551.136M231.856 552.088L231.827 551.136M231.827 551.136C231.825 551.031 231.824 550.955 231.824 550.907M231.827 551.136L231.824 550.907M231.824 550.907L231.823 550.857M231.824 550.907L231.823 550.857M938.164 550.851L938.164 550.857L938.163 550.907L938.163 550.972C938.162 551.015 938.161 551.07 938.16 551.136C938.156 551.344 938.148 551.664 938.131 552.088C938.098 552.936 938.031 554.198 937.895 555.816C937.623 559.052 937.077 563.704 935.98 569.297C933.785 580.497 929.399 595.393 920.656 610.258C903.305 639.762 868.481 669.714 797.737 669.714C726.992 669.714 692.169 639.762 674.817 610.258C666.074 595.393 661.688 580.497 659.493 569.297C658.396 563.704 657.85 559.052 657.578 555.816C657.442 554.198 657.375 552.936 657.342 552.088C657.325 551.664 657.317 551.344 657.313 551.136C657.311 551.031 657.31 550.955 657.31 550.907L657.309 550.857L657.309 550.851L938.164 550.851Z" fill="#5EE453" stroke="white" stroke-width="7"/>
<rect x="392.206" y="866.281" width="319.966" height="110.163" rx="55.0814" transform="rotate(-90 392.206 866.281)" fill="#5EE453" stroke="white" stroke-width="7"/>
<path d="M419.755 656.682L381.666 695.365L389.998 720.956L423.92 701.317L455.463 720.956L476.887 701.317L512.595 726.317L503.285 658.774L481.648 682.868L463.199 663.228L441.774 682.868L419.755 656.682Z" fill="white"/>
<rect x="825.316" y="869.036" width="319.966" height="110.163" rx="55.0814" transform="rotate(-90 825.316 869.036)" fill="#5EE453" stroke="white" stroke-width="7"/>
<circle cx="276.743" cy="277.373" r="273.07" fill="white"/>
<circle cx="276.743" cy="277.373" r="273.07" fill="white"/>
<circle cx="276.743" cy="277.373" r="273.07" stroke="black" stroke-width="7"/>
<path d="M207.503 229.453C239.245 210.501 247.512 164.025 224.3 125.151C201.089 86.276 156.253 71.5074 124.512 90.4596C92.7709 109.412 84.5034 155.888 107.715 194.762C130.927 233.637 175.762 248.406 207.503 229.453Z" fill="#5EE453" stroke="white" stroke-width="7"/>
<circle cx="282.56" cy="290.283" r="171.771" fill="#5EE453" stroke="white" stroke-width="7"/>
<path d="M196.452 453.88C228.193 434.928 236.46 388.452 213.249 349.577C190.037 310.703 145.201 295.934 113.46 314.886C81.7191 333.839 73.4517 380.314 96.6633 419.189C119.875 458.064 164.711 472.832 196.452 453.88Z" fill="#5EE453" stroke="white" stroke-width="7"/>
<path d="M416.679 220.41C448.42 201.458 456.688 154.982 433.476 116.108C410.265 77.233 365.429 62.4644 333.688 81.4167C301.947 100.369 293.679 146.845 316.891 185.719C340.102 224.594 384.938 239.363 416.679 220.41Z" fill="#5EE453" stroke="white" stroke-width="7"/>
<path d="M140.563 384.385L154.956 343.903H125.141L140.563 384.385Z" fill="black" stroke="black" stroke-width="7" stroke-linecap="round" stroke-linejoin="round"/>
<path d="M690.689 355.998C691.027 354.177 693.636 354.177 693.973 355.998V355.998C694.215 357.3 695.804 357.817 696.765 356.905V356.905C698.108 355.63 700.219 357.164 699.422 358.835V358.835C698.851 360.031 699.834 361.383 701.147 361.21V361.21C702.983 360.968 703.789 363.449 702.162 364.333V364.333C700.998 364.965 700.998 366.636 702.162 367.268V367.268C703.789 368.152 702.983 370.633 701.147 370.392V370.392C699.834 370.219 698.851 371.571 699.422 372.766V372.766C700.219 374.438 698.108 375.972 696.765 374.697V374.697C695.804 373.785 694.215 374.301 693.973 375.604V375.604C693.636 377.425 691.027 377.425 690.689 375.604V375.604C690.448 374.301 688.858 373.785 687.897 374.697V374.697C686.554 375.972 684.443 374.438 685.24 372.766V372.766C685.811 371.571 684.829 370.219 683.515 370.392V370.392C681.679 370.633 680.873 368.152 682.5 367.268V367.268C683.664 366.636 683.664 364.965 682.5 364.333V364.333C680.873 363.449 681.679 360.968 683.515 361.21V361.21C684.829 361.383 685.811 360.031 685.24 358.835V358.835C684.443 357.164 686.554 355.63 687.897 356.905V356.905C688.858 357.817 690.448 357.3 690.689 355.998V355.998Z" fill="black"/>
<path d="M690.151 322.363C691.537 321.136 693.594 322.741 692.74 324.384V324.384C692.129 325.559 693.064 326.944 694.382 326.816V326.816C696.226 326.638 696.946 329.146 695.289 329.973V329.973C694.104 330.565 694.047 332.235 695.188 332.906V332.906C696.784 333.846 695.893 336.298 694.067 335.993V335.993C692.76 335.775 691.732 337.092 692.261 338.307V338.307C693 340.005 690.838 341.465 689.539 340.145V340.145C688.61 339.201 687.004 339.662 686.718 340.955V340.955C686.318 342.764 683.71 342.674 683.436 340.842V340.842C683.239 339.532 681.669 338.962 680.677 339.84V339.84C679.291 341.068 677.234 339.463 678.088 337.819V337.819C678.699 336.644 677.764 335.259 676.445 335.387V335.387C674.602 335.565 673.882 333.058 675.538 332.23V332.23C676.724 331.639 676.781 329.969 675.639 329.297V329.297C674.043 328.358 674.934 325.906 676.761 326.21V326.21C678.068 326.428 679.096 325.111 678.567 323.896V323.896C677.828 322.198 679.99 320.738 681.289 322.058V322.058C682.218 323.003 683.824 322.541 684.11 321.248V321.248C684.51 319.44 687.117 319.529 687.392 321.361V321.361C687.589 322.671 689.159 323.242 690.151 322.363V322.363Z" fill="black"/>
<path d="M724.488 337.337C724.825 335.516 727.434 335.516 727.772 337.337V337.337C728.013 338.639 729.603 339.155 730.564 338.244V338.244C731.907 336.969 734.018 338.502 733.22 340.174V340.174C732.65 341.37 733.632 342.721 734.946 342.549V342.549C736.782 342.307 737.588 344.788 735.961 345.672V345.672C734.796 346.304 734.796 347.975 735.961 348.607V348.607C737.588 349.491 736.782 351.972 734.946 351.731V351.731C733.632 351.558 732.65 352.91 733.22 354.105V354.105C734.018 355.777 731.907 357.31 730.564 356.036V356.036C729.603 355.124 728.013 355.64 727.772 356.943V356.943C727.434 358.764 724.825 358.764 724.488 356.943V356.943C724.246 355.64 722.657 355.124 721.696 356.036V356.036C720.353 357.31 718.242 355.777 719.039 354.105V354.105C719.61 352.91 718.627 351.558 717.314 351.731V351.731C715.478 351.972 714.672 349.491 716.299 348.607V348.607C717.463 347.975 717.463 346.304 716.299 345.672V345.672C714.672 344.788 715.478 342.307 717.314 342.549V342.549C718.627 342.721 719.61 341.37 719.039 340.174V340.174C718.242 338.502 720.353 336.969 721.696 338.244V338.244C722.657 339.155 724.246 338.639 724.488 337.337V337.337Z" fill="black"/>
<path d="M756.554 374.659C756.892 372.838 759.501 372.838 759.838 374.659V374.659C760.08 375.961 761.669 376.478 762.63 375.566V375.566C763.973 374.291 766.084 375.825 765.287 377.496V377.496C764.717 378.692 765.699 380.044 767.012 379.871V379.871C768.848 379.629 769.654 382.111 768.027 382.994V382.994C766.863 383.626 766.863 385.297 768.027 385.93V385.93C769.654 386.813 768.848 389.295 767.012 389.053V389.053C765.699 388.88 764.717 390.232 765.287 391.428V391.428C766.084 393.099 763.973 394.633 762.63 393.358V393.358C761.669 392.446 760.08 392.963 759.838 394.265V394.265C759.501 396.086 756.892 396.086 756.554 394.265V394.265C756.313 392.963 754.724 392.446 753.763 393.358V393.358C752.419 394.633 750.309 393.099 751.106 391.428V391.428C751.676 390.232 750.694 388.88 749.38 389.053V389.053C747.544 389.295 746.738 386.813 748.366 385.93V385.93C749.53 385.297 749.53 383.626 748.366 382.994V382.994C746.738 382.111 747.544 379.629 749.38 379.871V379.871C750.694 380.044 751.676 378.692 751.106 377.496V377.496C750.309 375.825 752.419 374.291 753.763 375.566V375.566C754.724 376.478 756.313 375.961 756.554 374.659V374.659Z" fill="black"/>
<path d="M646.45 337.337C646.787 335.516 649.396 335.516 649.734 337.337V337.337C649.975 338.639 651.565 339.155 652.525 338.244V338.244C653.869 336.969 655.98 338.502 655.182 340.174V340.174C654.612 341.37 655.594 342.721 656.908 342.549V342.549C658.744 342.307 659.55 344.788 657.923 345.672V345.672C656.758 346.304 656.758 347.975 657.923 348.607V348.607C659.55 349.491 658.744 351.972 656.908 351.731V351.731C655.594 351.558 654.612 352.91 655.182 354.105V354.105C655.98 355.777 653.869 357.31 652.525 356.036V356.036C651.565 355.124 649.975 355.64 649.734 356.943V356.943C649.396 358.764 646.787 358.764 646.45 356.943V356.943C646.208 355.64 644.619 355.124 643.658 356.036V356.036C642.315 357.31 640.204 355.777 641.001 354.105V354.105C641.571 352.91 640.589 351.558 639.276 351.731V351.731C637.44 351.972 636.634 349.491 638.261 348.607V348.607C639.425 347.975 639.425 346.304 638.261 345.672V345.672C636.634 344.788 637.44 342.307 639.276 342.549V342.549C640.589 342.721 641.571 341.37 641.001 340.174V340.174C640.204 338.502 642.315 336.969 643.658 338.244V338.244C644.619 339.155 646.208 338.639 646.45 337.337V337.337Z" fill="black"/>
<path d="M244.565 430.123L87.5654 412.123" stroke="black" stroke-width="7" stroke-linecap="round"/>
<path d="M1027.38 75.7362C1025.08 81.4505 1017.46 82.5361 1013.66 77.6903L998.409 58.2479C994.609 53.4021 997.479 46.2593 1003.58 45.3908L1028.04 41.9063C1034.13 41.0379 1038.89 47.0951 1036.59 52.8094L1027.38 75.7362Z" fill="#5EE453"/>
<rect x="819.172" y="627.817" width="126.555" height="41.8975" rx="12.5" fill="white" stroke="black" stroke-width="7"/>
<rect x="819.172" y="769.54" width="126.555" height="41.8975" rx="12.5" fill="white" stroke="black" stroke-width="7"/>
<rect x="815.243" y="653.497" width="134.414" height="133.1" rx="12.5" fill="white" stroke="black" stroke-width="7"/>
<circle cx="47.8748" cy="47.8748" r="44.3748" transform="matrix(-1 0 0 1 320.729 240.871)" fill="white" stroke="white" stroke-width="7"/>
<ellipse cx="47.1494" cy="47.8748" rx="47.1494" ry="47.8748" transform="matrix(-1 0 0 1 172.963 213.619)" fill="white"/>
</svg>
