<svg width="1112" height="873" viewBox="0 0 1112 873" fill="none" xmlns="http://www.w3.org/2000/svg">
<path d="M741.269 478.502C877.022 497.952 1124.21 454.177 1026.97 123.475" stroke="#5EE453" stroke-width="98" stroke-linecap="round" stroke-linejoin="round"/>
<rect x="232.324" y="866.313" width="364.807" height="110.163" rx="55.0814" transform="rotate(-90 232.324 866.313)" fill="#5EE453" stroke="white" stroke-width="7"/>
<rect x="668.951" y="869.067" width="319.966" height="110.163" rx="55.0814" transform="rotate(-90 668.951 869.067)" fill="#5EE453" stroke="white" stroke-width="7"/>
<path d="M635.083 498.451C648.782 510.193 657.81 527.764 657.81 550.88L635.083 498.451ZM635.083 498.451C621.458 486.771 603.411 481.017 585.494 481.017C567.578 481.017 549.531 486.771 535.906 498.451C522.207 510.193 513.179 527.764 513.179 550.88L635.083 498.451ZM232.324 550.882C232.324 550.881 232.324 550.881 232.324 550.88C232.325 358.852 395.329 197.712 585.494 197.712C775.66 197.712 938.663 358.852 938.665 550.88L232.324 550.882ZM232.324 550.882L232.324 550.888M232.324 550.882L232.324 550.888M249.832 610.29C267.183 639.793 302.007 669.746 372.751 669.746C443.496 669.746 478.319 639.793 495.671 610.29C504.414 595.424 508.799 580.528 510.995 569.328C512.092 563.735 512.638 559.084 512.91 555.847C513.046 554.229 513.113 552.967 513.146 552.119C513.163 551.696 513.171 551.376 513.175 551.167C513.177 551.063 513.178 550.986 513.178 550.938L513.179 550.888L513.179 550.882L249.832 610.29ZM249.832 610.29C241.089 595.424 236.703 580.528 234.508 569.328M249.832 610.29L234.508 569.328M234.508 569.328C233.411 563.735 232.865 559.084 232.593 555.847M234.508 569.328L232.593 555.847M232.593 555.847C232.457 554.229 232.39 552.967 232.357 552.119M232.593 555.847L232.357 552.119M232.357 552.119C232.34 551.696 232.332 551.376 232.328 551.167M232.357 552.119L232.328 551.167M232.328 551.167C232.326 551.063 232.325 550.986 232.325 550.938M232.328 551.167L232.325 550.938M232.325 550.938L232.324 550.888M232.325 550.938L232.324 550.888M938.665 550.882L938.665 550.888L938.664 550.938L938.664 551.003C938.663 551.047 938.662 551.101 938.661 551.167C938.657 551.376 938.649 551.695 938.632 552.119C938.599 552.967 938.532 554.229 938.396 555.847C938.124 559.084 937.578 563.735 936.481 569.328C934.286 580.528 929.9 595.424 921.157 610.29C903.806 639.793 868.982 669.746 798.238 669.746C727.493 669.746 692.67 639.793 675.318 610.29C666.575 595.424 662.189 580.528 659.994 569.328C658.897 563.735 658.351 559.084 658.079 555.847C657.943 554.229 657.876 552.967 657.843 552.119C657.826 551.696 657.818 551.376 657.814 551.167C657.812 551.063 657.811 550.986 657.811 550.938L657.81 550.888L657.81 550.882L938.665 550.882Z" fill="#5EE453" stroke="white" stroke-width="7"/>
<rect x="392.707" y="866.313" width="319.966" height="110.163" rx="55.0814" transform="rotate(-90 392.707 866.313)" fill="#5EE453" stroke="white" stroke-width="7"/>
<path d="M420.255 656.713L382.167 695.396L390.499 720.987L424.421 701.348L455.964 720.987L477.388 701.348L513.096 726.349L503.786 658.805L482.149 682.899L463.7 663.26L442.275 682.899L420.255 656.713Z" fill="white"/>
<rect x="825.817" y="869.067" width="319.966" height="110.163" rx="55.0814" transform="rotate(-90 825.817 869.067)" fill="#5EE453" stroke="white" stroke-width="7"/>
<circle cx="277.244" cy="277.404" r="273.07" fill="white"/>
<circle cx="277.244" cy="277.404" r="273.07" fill="white"/>
<circle cx="277.244" cy="277.404" r="273.07" stroke="black" stroke-width="7"/>
<path d="M208.004 229.485C239.746 210.532 248.013 164.057 224.801 125.182C201.59 86.3072 156.754 71.5387 125.013 90.4909C93.2719 109.443 85.0044 155.919 108.216 194.794C131.428 233.668 176.263 248.437 208.004 229.485Z" fill="#5EE453" stroke="white" stroke-width="7"/>
<circle cx="283.06" cy="290.314" r="171.771" fill="#5EE453" stroke="white" stroke-width="7"/>
<path d="M196.953 453.911C228.694 434.959 236.961 388.483 213.75 349.609C190.538 310.734 145.702 295.965 113.961 314.918C82.2201 333.87 73.9527 380.346 97.1643 419.22C120.376 458.095 165.212 472.864 196.953 453.911Z" fill="#5EE453" stroke="white" stroke-width="7"/>
<path d="M417.18 220.442C448.921 201.489 457.189 155.014 433.977 116.139C410.766 77.2643 365.93 62.4957 334.189 81.4479C302.448 100.4 294.18 146.876 317.392 185.751C340.603 224.625 385.439 239.394 417.18 220.442Z" fill="#5EE453" stroke="white" stroke-width="7"/>
<path d="M141.064 384.416L155.457 343.935H125.642L141.064 384.416Z" fill="black" stroke="black" stroke-width="7" stroke-linecap="round" stroke-linejoin="round"/>
<path d="M691.19 356.029C691.528 354.208 694.137 354.208 694.474 356.029V356.029C694.716 357.331 696.305 357.848 697.266 356.936V356.936C698.609 355.661 700.72 357.195 699.923 358.866V358.866C699.352 360.062 700.335 361.414 701.648 361.241V361.241C703.484 360.999 704.29 363.481 702.663 364.364V364.364C701.499 364.997 701.499 366.668 702.663 367.3V367.3C704.29 368.183 703.484 370.665 701.648 370.423V370.423C700.335 370.25 699.352 371.602 699.923 372.798V372.798C700.72 374.469 698.609 376.003 697.266 374.728V374.728C696.305 373.816 694.716 374.333 694.474 375.635V375.635C694.137 377.456 691.528 377.456 691.19 375.635V375.635C690.949 374.333 689.359 373.816 688.398 374.728V374.728C687.055 376.003 684.944 374.469 685.741 372.798V372.798C686.312 371.602 685.33 370.25 684.016 370.423V370.423C682.18 370.665 681.374 368.183 683.001 367.3V367.3C684.165 366.668 684.165 364.997 683.001 364.364V364.364C681.374 363.481 682.18 360.999 684.016 361.241V361.241C685.33 361.414 686.312 360.062 685.741 358.866V358.866C684.944 357.195 687.055 355.661 688.398 356.936V356.936C689.359 357.848 690.949 357.331 691.19 356.029V356.029Z" fill="black"/>
<path d="M690.652 322.395C692.038 321.167 694.095 322.772 693.241 324.415V324.415C692.63 325.59 693.565 326.975 694.883 326.848V326.848C696.727 326.669 697.447 329.177 695.79 330.004V330.004C694.605 330.596 694.548 332.266 695.689 332.938V332.938C697.285 333.877 696.394 336.329 694.568 336.024V336.024C693.261 335.806 692.233 337.124 692.762 338.338V338.338C693.501 340.036 691.339 341.496 690.04 340.176V340.176C689.111 339.232 687.505 339.693 687.219 340.987V340.987C686.819 342.795 684.211 342.705 683.937 340.874V340.874C683.74 339.564 682.17 338.993 681.178 339.871V339.871C679.792 341.099 677.735 339.494 678.589 337.851V337.851C679.2 336.675 678.265 335.29 676.946 335.418V335.418C675.103 335.596 674.383 333.089 676.039 332.262V332.262C677.225 331.67 677.282 330 676.14 329.328V329.328C674.544 328.389 675.435 325.937 677.262 326.241V326.241C678.569 326.459 679.597 325.142 679.068 323.928V323.928C678.329 322.23 680.491 320.77 681.79 322.09V322.09C682.719 323.034 684.325 322.573 684.611 321.279V321.279C685.011 319.471 687.618 319.561 687.893 321.392V321.392C688.089 322.702 689.66 323.273 690.652 322.395V322.395Z" fill="black"/>
<path d="M724.989 337.368C725.326 335.547 727.935 335.547 728.273 337.368V337.368C728.514 338.67 730.104 339.187 731.065 338.275V338.275C732.408 337 734.519 338.534 733.721 340.205V340.205C733.151 341.401 734.133 342.753 735.447 342.58V342.58C737.283 342.338 738.089 344.82 736.462 345.703V345.703C735.297 346.335 735.297 348.006 736.462 348.639V348.639C738.089 349.522 737.283 352.004 735.447 351.762V351.762C734.133 351.589 733.151 352.941 733.721 354.137V354.137C734.519 355.808 732.408 357.342 731.065 356.067V356.067C730.104 355.155 728.514 355.671 728.273 356.974V356.974C727.935 358.795 725.326 358.795 724.989 356.974V356.974C724.747 355.671 723.158 355.155 722.197 356.067V356.067C720.854 357.342 718.743 355.808 719.54 354.137V354.137C720.111 352.941 719.128 351.589 717.815 351.762V351.762C715.979 352.004 715.173 349.522 716.8 348.639V348.639C717.964 348.006 717.964 346.335 716.8 345.703V345.703C715.173 344.82 715.979 342.338 717.815 342.58V342.58C719.128 342.753 720.111 341.401 719.54 340.205V340.205C718.743 338.534 720.854 337 722.197 338.275V338.275C723.158 339.187 724.747 338.67 724.989 337.368V337.368Z" fill="black"/>
<path d="M757.055 374.69C757.393 372.869 760.002 372.869 760.339 374.69V374.69C760.581 375.993 762.17 376.509 763.131 375.597V375.597C764.474 374.322 766.585 375.856 765.788 377.527V377.527C765.218 378.723 766.2 380.075 767.513 379.902V379.902C769.349 379.66 770.155 382.142 768.528 383.026V383.026C767.364 383.658 767.364 385.329 768.528 385.961V385.961C770.155 386.844 769.349 389.326 767.513 389.084V389.084C766.2 388.911 765.218 390.263 765.788 391.459V391.459C766.585 393.13 764.474 394.664 763.131 393.389V393.389C762.17 392.477 760.581 392.994 760.339 394.296V394.296C760.002 396.117 757.393 396.117 757.055 394.296V394.296C756.814 392.994 755.225 392.477 754.264 393.389V393.389C752.92 394.664 750.809 393.13 751.607 391.459V391.459C752.177 390.263 751.195 388.911 749.881 389.084V389.084C748.045 389.326 747.239 386.844 748.867 385.961V385.961C750.031 385.329 750.031 383.658 748.867 383.026V383.026C747.239 382.142 748.045 379.66 749.881 379.902V379.902C751.195 380.075 752.177 378.723 751.607 377.527V377.527C750.809 375.856 752.92 374.322 754.264 375.597V375.597C755.225 376.509 756.814 375.993 757.055 374.69V374.69Z" fill="black"/>
<path d="M646.951 337.368C647.288 335.547 649.897 335.547 650.235 337.368V337.368C650.476 338.67 652.065 339.187 653.026 338.275V338.275C654.37 337 656.481 338.534 655.683 340.205V340.205C655.113 341.401 656.095 342.753 657.409 342.58V342.58C659.245 342.338 660.051 344.82 658.424 345.703V345.703C657.259 346.335 657.259 348.006 658.424 348.639V348.639C660.051 349.522 659.245 352.004 657.409 351.762V351.762C656.095 351.589 655.113 352.941 655.683 354.137V354.137C656.481 355.808 654.37 357.342 653.026 356.067V356.067C652.065 355.155 650.476 355.671 650.235 356.974V356.974C649.897 358.795 647.288 358.795 646.951 356.974V356.974C646.709 355.671 645.12 355.155 644.159 356.067V356.067C642.816 357.342 640.705 355.808 641.502 354.137V354.137C642.072 352.941 641.09 351.589 639.777 351.762V351.762C637.941 352.004 637.135 349.522 638.762 348.639V348.639C639.926 348.006 639.926 346.335 638.762 345.703V345.703C637.135 344.82 637.941 342.338 639.777 342.58V342.58C641.09 342.753 642.072 341.401 641.502 340.205V340.205C640.705 338.534 642.816 337 644.159 338.275V338.275C645.12 339.187 646.709 338.67 646.951 337.368V337.368Z" fill="black"/>
<path d="M245.066 430.154L88.0664 412.154" stroke="black" stroke-width="7" stroke-linecap="round"/>
<path d="M1027.88 75.7675C1025.58 81.4817 1017.96 82.5673 1014.16 77.7215L998.91 58.2792C995.11 53.4334 997.98 46.2905 1004.08 45.4221L1028.54 41.9376C1034.64 41.0691 1039.39 47.1264 1037.09 52.8406L1027.88 75.7675Z" fill="#5EE453"/>
<rect x="819.673" y="627.849" width="126.555" height="41.8975" rx="12.5" fill="white" stroke="black" stroke-width="7"/>
<rect x="819.673" y="769.571" width="126.555" height="41.8975" rx="12.5" fill="white" stroke="black" stroke-width="7"/>
<rect x="815.744" y="653.528" width="134.414" height="133.1" rx="12.5" fill="white" stroke="black" stroke-width="7"/>
</svg>
