<svg width="1440" height="970" viewBox="0 0 1440 970" fill="none" xmlns="http://www.w3.org/2000/svg">
<path d="M-138.983 452.905C-153.504 314.702 -27.9888 80.4347 158.137 181.253C344.262 282.071 53.9683 744.173 141.159 841.707C228.35 939.242 360.613 841.707 368.668 654.946C376.566 471.809 529.583 460.563 575.305 570.055C626.49 692.629 535.358 861.094 679.26 881.839C823.163 902.584 904.055 521.316 575.305 325.447C359.272 196.734 456.327 19.4687 624.255 94.6999C792.184 169.931 831.877 390.382 943.803 379.028C1055.73 367.673 985.382 257.569 1063.08 143.901C1140.78 30.2321 1333.03 59.3737 1333.03 235.583C1333.03 411.793 1202.24 453.77 1105.52 508.933C916.087 616.98 1026.53 922.193 1168.34 891.661C1310.16 861.129 1161.28 674.133 1287.97 603.938C1397.16 543.443 1455.9 673.666 1544.31 779.346C1683.12 945.282 1598.82 662.408 1516.69 411.793" stroke="white" stroke-width="152" stroke-linecap="round" stroke-linejoin="round"/>
<mask id="mask0_302_146" style="mask-type:alpha" maskUnits="userSpaceOnUse" x="-217" y="0" width="1912" height="970">
<path d="M-138.983 452.905C-153.504 314.702 -27.9888 80.4347 158.137 181.253C344.262 282.071 53.9683 744.173 141.159 841.707C228.35 939.242 360.613 841.707 368.668 654.946C376.566 471.809 529.583 460.563 575.305 570.055C626.49 692.629 535.358 861.094 679.26 881.839C823.163 902.584 904.055 521.316 575.305 325.447C359.272 196.734 456.327 19.4687 624.255 94.6999C792.184 169.931 831.877 390.382 943.803 379.028C1055.73 367.673 985.382 257.569 1063.08 143.901C1140.78 30.2321 1333.03 59.3737 1333.03 235.583C1333.03 411.793 1202.24 453.77 1105.52 508.933C916.087 616.98 1026.53 922.193 1168.34 891.661C1310.16 861.129 1161.28 674.133 1287.97 603.938C1397.16 543.443 1455.9 673.666 1544.31 779.346C1683.12 945.282 1598.82 662.408 1516.69 411.793" stroke="white" stroke-width="152" stroke-linecap="round" stroke-linejoin="round"/>
</mask>
<g mask="url(#mask0_302_146)">
<rect x="1373.43" y="502.098" width="182.275" height="55.5236" transform="rotate(90 1373.43 502.098)" fill="black"/>
<rect x="1373.43" y="502.098" width="36.4551" height="27.7618" transform="rotate(90 1373.43 502.098)" fill="white"/>
<rect x="1373.43" y="575.008" width="36.4551" height="27.7618" transform="rotate(90 1373.43 575.008)" fill="white"/>
<rect x="1345.67" y="611.463" width="36.4551" height="27.7618" transform="rotate(90 1345.67 611.463)" fill="white"/>
<rect x="1373.43" y="647.918" width="36.4551" height="27.7618" transform="rotate(90 1373.43 647.918)" fill="white"/>
<rect x="1345.67" y="538.553" width="36.4551" height="27.7618" transform="rotate(90 1345.67 538.553)" fill="white"/>
</g>
</svg>
