<svg width="96" height="76" viewBox="0 0 96 76" fill="none" xmlns="http://www.w3.org/2000/svg">
<mask id="path-1-inside-1_56_409" fill="white">
<path d="M0.827801 50.7022C4.14272 56.4438 8.55606 61.4763 13.8159 65.5123C19.0757 69.5483 25.0789 72.5087 31.4828 74.2247C37.8868 75.9406 44.566 76.3784 51.1391 75.513C57.7122 74.6476 64.0505 72.4961 69.7921 69.1812C75.5337 65.8662 80.5661 61.4529 84.6021 56.1931C88.6381 50.9333 91.5986 44.93 93.3145 38.5261C95.0304 32.1222 95.4682 25.443 94.6028 18.8699C93.7375 12.2968 91.5859 5.95848 88.271 0.216877L44.5494 25.4596L0.827801 50.7022Z"/>
</mask>
<path d="M0.827801 50.7022C4.14272 56.4438 8.55606 61.4763 13.8159 65.5123C19.0757 69.5483 25.0789 72.5087 31.4828 74.2247C37.8868 75.9406 44.566 76.3784 51.1391 75.513C57.7122 74.6476 64.0505 72.4961 69.7921 69.1812C75.5337 65.8662 80.5661 61.4529 84.6021 56.1931C88.6381 50.9333 91.5986 44.93 93.3145 38.5261C95.0304 32.1222 95.4682 25.443 94.6028 18.8699C93.7375 12.2968 91.5859 5.95848 88.271 0.216877L44.5494 25.4596L0.827801 50.7022Z" fill="black" stroke="black" stroke-width="14" mask="url(#path-1-inside-1_56_409)"/>
</svg>
