<svg width="389" height="264" viewBox="0 0 389 264" fill="none" xmlns="http://www.w3.org/2000/svg">
<path d="M47.9799 158.301C46.5228 156.455 44.5677 156.225 42.7215 157.682L28.2908 169.072C26.859 170.202 26.6049 172.359 27.735 173.791C28.865 175.223 31.0223 175.477 32.4541 174.347L45.0386 164.414L51.3134 172.364L38.7289 182.297C37.2971 183.427 37.043 185.584 38.1731 187.016C39.3031 188.448 41.4605 188.702 42.8922 187.572L57.3229 176.182C59.1692 174.725 59.4292 172.807 57.9422 170.923L47.9799 158.301Z" fill="black"/>
<path d="M75.4852 185.872C72.0711 183.304 68.2797 182.915 65.6278 184.524L66.4069 183.489C67.7341 181.724 67.1128 179.755 65.7319 178.717C64.3893 177.707 62.287 177.627 60.9597 179.392L42.8111 203.52C41.4839 205.285 42.1435 207.282 43.4861 208.292C44.8671 209.331 46.931 209.382 48.2583 207.617L55.3561 198.181C55.1977 201.665 57.1039 204.721 59.5206 206.538C65.6966 211.184 72.8412 209.59 77.3134 203.645C81.5837 197.967 81.5844 190.46 75.4852 185.872ZM62.1013 200.792C58.8791 198.368 58.3375 194.297 60.7323 191.113C63.1271 187.929 67.1888 187.32 70.411 189.744C73.6716 192.196 74.2421 196.229 71.8184 199.451C69.3947 202.674 65.3236 203.215 62.1013 200.792Z" fill="black"/>
<path d="M87.3546 222.381C94.6159 225.421 101.998 222.579 104.927 215.584C107.837 208.632 104.7 201.334 97.439 198.294C90.1777 195.254 82.8213 198.159 79.911 205.11C76.9821 212.106 80.0934 219.34 87.3546 222.381ZM89.7274 216.713C86.0525 215.175 84.4824 211.343 86.021 207.668C87.5596 203.993 91.3913 202.423 95.0662 203.962C98.7854 205.519 100.355 209.35 98.8168 213.025C97.2782 216.7 93.4466 218.27 89.7274 216.713Z" fill="black"/>
<path d="M118.955 231.646C125.445 232.973 129.523 230.279 130.378 226.093C130.983 223.13 129.516 220.479 126.763 219.328C128.665 219.129 130.44 217.875 131.036 214.959C131.853 210.962 128.9 208.154 123.209 206.991L115.544 205.425C113.521 205.011 112.115 205.9 111.692 207.969L107.992 226.075C107.569 228.144 108.515 229.513 110.537 229.926L118.955 231.646ZM117.196 211.004L122.51 212.09C124.109 212.417 125.225 213.429 124.898 215.028C124.591 216.533 123.195 217.129 121.549 216.793L116.235 215.707L117.196 211.004ZM115.341 220.081L121.643 221.369C123.665 221.782 124.818 223.095 124.481 224.741C124.164 226.293 122.57 227.143 120.5 226.72L114.246 225.442L115.341 220.081Z" fill="black"/>
<path d="M163.768 221.643C163.211 215.136 158.944 210.114 151.461 209.815C143.931 209.515 138.336 214.912 138.036 222.443C137.726 230.212 143.131 235.616 150.853 235.924C154.881 236.085 158.16 234.582 160.713 231.994C161.363 231.347 161.632 230.637 161.657 230.014C161.72 228.431 160.381 227.081 158.846 227.019C158.078 226.989 157.3 227.246 156.596 228.034C155.239 229.518 153.475 230.408 151.124 230.314C147.623 230.175 144.883 227.808 144.722 224.631L160.309 225.252C162.372 225.334 163.707 224.379 163.787 222.364C163.797 222.125 163.806 221.885 163.768 221.643ZM151.243 215.283C154.601 215.417 157.06 217.581 157.228 220.614L144.902 220.122C145.214 217.108 147.886 215.149 151.243 215.283Z" fill="black"/>
<path d="M171.878 244.103C173.543 243.879 174.738 242.315 174.515 240.65L173.806 235.369L191.123 233.046L191.831 238.327C192.055 239.992 193.667 241.18 195.332 240.957C196.997 240.734 198.192 239.169 197.969 237.504L196.801 228.798C196.558 226.99 195.451 226.315 193.643 226.558L193.072 226.634L190.928 210.649C190.679 208.794 189.499 207.935 187.691 208.178L172.895 210.162C170.945 210.424 170.295 211.722 170.417 213.352L171.245 225.3C171.444 228.228 171.156 229.332 170.347 229.44L170.062 229.478C168.444 229.695 166.97 230.619 167.206 232.38L168.425 241.466C168.648 243.131 170.213 244.326 171.878 244.103ZM177.278 228.753C177.778 228.153 177.942 226.484 177.807 224.032L177.226 215.732L184.648 214.737L186.364 227.534L177.278 228.753Z" fill="black"/>
<path d="M224.803 223.707C226.521 223.095 227.451 221.132 226.839 219.414L220.615 201.962C219.744 199.521 217.481 198.748 215.628 199.409C214.497 199.812 213.515 200.774 213.089 202.149L207.766 219.234L203.558 207.434C202.929 205.671 200.982 204.785 199.264 205.398C197.546 206.01 196.6 207.928 197.228 209.691L203.436 227.097C204.307 229.539 206.508 230.282 208.362 229.621C209.492 229.218 210.49 228.302 210.962 226.91L216.398 210.142L220.509 221.671C221.122 223.389 223.085 224.32 224.803 223.707Z" fill="black"/>
<path d="M234.822 190.062C233.455 191.038 233.13 192.98 234.106 194.347C235.082 195.715 236.996 196 238.363 195.024L241.841 192.543L251.125 205.554C252.185 207.038 254.355 207.436 255.879 206.348C257.364 205.289 257.694 203.107 256.634 201.622L247.35 188.612L250.827 186.13C252.194 185.154 252.547 183.252 251.571 181.884C250.595 180.517 248.653 180.192 247.286 181.168L234.822 190.062Z" fill="black"/>
<path d="M266.93 162.401C265.713 163.627 265.278 165.631 266.913 167.255L267.254 167.593C263.925 166.994 260.604 168.363 258.405 170.576C252.96 176.06 253.562 183.355 258.841 188.598C263.915 193.638 271.318 194.63 276.662 189.249C279.605 186.286 280.644 182.651 279.412 179.668L280.298 180.548C281.864 182.104 283.934 181.723 285.151 180.497C286.369 179.271 286.701 177.234 285.135 175.678L271.75 162.385C270.115 160.761 268.114 161.209 266.93 162.401ZM273.588 183.694C270.713 186.588 266.606 186.636 263.711 183.761C260.885 180.954 260.905 176.847 263.78 173.952C266.621 171.091 270.728 171.111 273.521 173.885C276.347 176.692 276.429 180.833 273.588 183.694Z" fill="black"/>
<path d="M300.965 160.613C305.371 154.381 304.353 146.842 298.318 142.574C292.321 138.334 285.358 139.701 281.312 145.423C279.705 147.696 278.632 150.876 280.182 154.089C276.312 150.999 275.682 147.732 277.538 143.695L281.034 136.173C281.642 134.898 281.165 133.326 280.107 132.578C278.775 131.636 276.924 132.091 276.065 133.306C275.982 133.424 275.899 133.541 275.855 133.687L272.22 141.404C268.713 148.859 271.33 155.883 278.071 160.65L281.716 163.227C289.241 168.548 296.614 166.766 300.965 160.613ZM295.976 157.026C293.759 160.162 290.052 160.832 286.916 158.615C283.82 156.426 283.177 152.679 285.394 149.544C287.556 146.487 291.303 145.844 294.399 148.033C297.534 150.25 298.138 153.969 295.976 157.026Z" fill="black"/>
<path d="M312.33 142.522C313.024 138.16 310.208 134.972 306.475 132.384L298.989 127.142L302.06 121.381L316.08 128.856C317.69 129.714 319.81 129.104 320.668 127.494C321.549 125.842 320.851 123.784 319.241 122.926L302.341 113.916C300.731 113.058 299.368 113.473 298.51 115.083L292.029 127.239C291.171 128.848 291.699 130 293.196 131.07L303.316 138.206C305.214 139.545 305.982 140.552 305.963 142.119C305.929 143.407 306.655 144.392 307.587 144.889C309.027 145.657 311.074 145.388 311.954 143.736C312.135 143.398 312.254 142.971 312.33 142.522Z" fill="black"/>
<path d="M321.643 88.6416C315.332 86.9597 309.161 89.2717 306.344 96.2096C303.508 103.192 306.689 110.286 313.671 113.121C320.876 116.047 327.792 112.794 330.7 105.633C332.217 101.898 331.914 98.3039 330.345 95.0245C329.957 94.1935 329.38 93.7003 328.802 93.4655C327.334 92.8696 325.61 93.6717 325.032 95.0948C324.743 95.8064 324.721 96.6263 325.224 97.556C326.16 99.3346 326.399 101.297 325.514 103.476C324.196 106.723 321.04 108.498 317.997 107.573L323.866 93.1189C324.642 91.2065 324.196 89.6265 322.328 88.868C322.106 88.7777 321.883 88.6874 321.643 88.6416ZM311.414 98.2683C312.678 95.1552 315.547 93.5746 318.457 94.4455L313.816 105.875C311.087 104.56 310.149 101.381 311.414 98.2683Z" fill="black"/>
<path d="M313.19 79.8708C312.68 81.4716 313.584 83.2204 315.185 83.7303C316.785 84.2402 318.489 83.3217 318.998 81.721L320.295 77.6505L335.525 82.5017C337.263 83.0552 339.238 82.0724 339.807 80.2887C340.36 78.5508 339.317 76.6065 337.579 76.0529L322.349 71.2017L323.646 67.1312C324.156 65.5305 323.297 63.7962 321.697 63.2863C320.096 62.7765 318.347 63.6803 317.837 65.2811L313.19 79.8708Z" fill="black"/>
<path d="M329.459 38.9541C328.92 37.9317 328.219 37.3641 327.473 37.1807C326.122 36.8484 324.729 37.89 324.328 39.5215C324.098 40.4537 324.173 41.5594 324.818 42.7559L331.092 54.4313C329.436 53.7276 327.909 53.3029 324.6 52.4894C322.829 52.0539 320.924 53.1674 320.477 54.9853C320.03 56.8032 321.201 58.6729 322.973 59.1083L341.338 63.6229C343.109 64.0583 345.014 62.9448 345.461 61.127C345.954 59.1226 344.596 57.405 342.918 56.9925C339.189 56.0758 336.638 55.5969 334.786 55.2899L347.493 48.0336C348.411 47.5177 348.897 46.7475 349.08 46.0017C349.504 44.277 348.437 42.3836 346.853 41.994C346.247 41.8451 345.583 41.9292 344.898 42.3044L334.549 48.4105L329.459 38.9541Z" fill="black"/>
<path d="M331.088 16.0743C339.35 20.8997 343.031 22.9645 346.339 24.3786C342.643 24.6021 337.702 25.5313 329.179 27.1429C327.51 27.4813 326.631 28.5931 326.413 29.8221C326.096 31.6182 327.14 33.7041 329.078 34.047C329.503 34.1222 329.946 34.103 330.452 33.9976L352.534 29.0334L358.605 32.7399C359.045 33.0126 359.501 33.1908 359.926 33.266C361.817 33.6006 363.299 32.1081 363.592 30.4538C363.81 29.2249 363.413 27.8872 362.048 27.0608L334.517 10.1978C334.078 9.9251 333.622 9.74693 333.196 9.67166C331.306 9.33711 329.72 10.8601 329.411 12.609C329.193 13.8379 329.629 15.2311 331.088 16.0743Z" fill="black"/>
</svg>
