<svg width="715" height="480" viewBox="0 0 715 480" fill="none" xmlns="http://www.w3.org/2000/svg">
<path d="M407.242 304.495C420.94 316.237 429.968 333.808 429.969 356.924L407.242 304.495ZM407.242 304.495C393.616 292.815 375.569 287.061 357.653 287.061C339.736 287.061 321.689 292.815 308.064 304.495C294.366 316.237 285.337 333.808 285.337 356.924L407.242 304.495ZM4.48242 356.926C4.48242 356.925 4.48242 356.924 4.48242 356.924C4.48369 164.896 167.487 3.75587 357.653 3.75586C547.818 3.75585 710.822 164.896 710.823 356.924L4.48242 356.926ZM4.48242 356.926L4.48245 356.932M4.48242 356.926L4.48245 356.932M21.9903 416.334C39.3416 445.837 74.1651 475.79 144.91 475.79C215.654 475.79 250.478 445.837 267.829 416.334C276.572 401.468 280.958 386.572 283.153 375.372C284.25 369.779 284.796 365.128 285.068 361.891C285.204 360.273 285.271 359.011 285.304 358.163C285.321 357.74 285.329 357.42 285.333 357.211C285.335 357.107 285.336 357.03 285.336 356.982L285.337 356.932L285.337 356.926L21.9903 416.334ZM21.9903 416.334C13.2475 401.468 8.86147 386.572 6.66591 375.372M21.9903 416.334L6.66591 375.372M6.66591 375.372C5.56943 369.779 5.02317 365.128 4.75124 361.891M6.66591 375.372L4.75124 361.891M4.75124 361.891C4.61533 360.273 4.54811 359.011 4.51487 358.163M4.75124 361.891L4.51487 358.163M4.51487 358.163C4.49826 357.739 4.49014 357.42 4.48618 357.211M4.51487 358.163L4.48618 357.211M4.48618 357.211C4.48421 357.106 4.48326 357.03 4.48282 356.982M4.48618 357.211L4.48282 356.982M4.48282 356.982L4.48245 356.932M4.48282 356.982L4.48245 356.932M710.823 356.926L710.823 356.932L710.823 356.982L710.822 357.047C710.821 357.091 710.82 357.145 710.819 357.211C710.815 357.419 710.807 357.739 710.791 358.163C710.757 359.011 710.69 360.273 710.554 361.891C710.282 365.128 709.736 369.779 708.64 375.372C706.444 386.572 702.058 401.468 693.315 416.334C675.964 445.837 641.14 475.79 570.396 475.79C499.651 475.79 464.828 445.837 447.476 416.334C438.734 401.468 434.348 386.572 432.152 375.372C431.056 369.779 430.509 365.128 430.237 361.891C430.102 360.273 430.034 359.011 430.001 358.163C429.984 357.74 429.976 357.42 429.972 357.211C429.97 357.107 429.969 357.03 429.969 356.982L429.969 356.932L429.969 356.926L710.823 356.926Z" fill="#5EE453" stroke="white" stroke-width="7"/>
</svg>
