<svg width="763" height="510" viewBox="0 0 763 510" fill="none" xmlns="http://www.w3.org/2000/svg">
<path d="M438.326 379.697C438.323 379.661 438.322 379.631 438.32 379.607C438.282 331.27 410.465 305.697 381.289 305.697C352.119 305.697 324.307 331.26 324.258 379.578C324.255 379.629 324.249 379.698 324.242 379.785C324.223 380.008 324.192 380.35 324.145 380.802C324.05 381.706 323.89 383.051 323.633 384.774C323.117 388.221 322.209 393.174 320.646 399.131C317.518 411.054 311.784 426.931 301.373 442.786C280.67 474.315 241.197 506.208 165.498 506.208C89.7929 506.208 49.5343 474.307 28.063 442.739C17.2707 426.871 11.1603 410.985 7.751 399.057C6.04778 393.098 5.02314 388.143 4.42601 384.695C4.12753 382.971 3.93614 381.626 3.82028 380.721C3.76235 380.269 3.72333 379.927 3.69926 379.704C3.69212 379.638 3.68629 379.582 3.68168 379.537C3.77805 175.492 178 4.26954 381.289 4.26953C584.57 4.26952 758.785 175.476 758.897 379.509C758.892 379.549 758.886 379.597 758.88 379.651C758.852 379.875 758.808 380.217 758.743 380.669C758.613 381.574 758.401 382.92 758.076 384.644C757.426 388.093 756.326 393.049 754.531 399.01C750.938 410.94 744.582 426.833 733.542 442.709C711.57 474.302 670.8 506.208 595.092 506.208C519.396 506.208 480.436 474.32 460.232 442.818C450.068 426.971 444.579 411.101 441.634 399.18C440.163 393.225 439.331 388.272 438.868 384.826C438.636 383.103 438.497 381.759 438.417 380.855C438.376 380.403 438.351 380.061 438.335 379.838C438.331 379.784 438.328 379.737 438.326 379.697Z" fill="#5EE453" stroke="white" stroke-width="7"/>
</svg>
