<svg width="54" height="56" viewBox="0 0 54 56" fill="none" xmlns="http://www.w3.org/2000/svg">
<path d="M24.1478 3.31842C24.7541 0.0475023 29.4409 0.047507 30.0473 3.31843L30.9274 8.06607C31.3611 10.4059 34.2159 11.3334 35.9421 9.69545L39.4447 6.37183C41.8579 4.08201 45.6496 6.83684 44.2175 9.83947L42.1389 14.1977C41.1145 16.3456 42.8789 18.774 45.2382 18.4635L50.0255 17.8334C53.3237 17.3993 54.7719 21.8567 51.8485 23.4442L47.6052 25.7483C45.5139 26.8838 45.5139 29.8855 47.6052 31.0211L51.8485 33.3252C54.7719 34.9126 53.3236 39.3701 50.0254 38.936L45.2382 38.3059C42.8789 37.9953 41.1145 40.4238 42.1389 42.5717L44.2175 46.9299C45.6496 49.9325 41.8579 52.6874 39.4447 50.3975L35.9421 47.0739C34.2159 45.4359 31.3611 46.3635 30.9274 48.7033L30.0473 53.4509C29.4409 56.7219 24.7541 56.7219 24.1478 53.4509L23.2677 48.7033C22.834 46.3635 19.9792 45.4359 18.253 47.0739L14.7504 50.3975C12.3372 52.6874 8.54552 49.9325 9.97757 46.9299L12.0561 42.5717C13.0805 40.4238 11.3162 37.9953 8.95687 38.3059L4.16963 38.936C0.871428 39.3701 -0.576866 34.9126 2.34659 33.3252L6.5899 31.0211C8.68114 29.8855 8.68114 26.8838 6.5899 25.7483L2.34658 23.4442C-0.576872 21.8567 0.87143 17.3993 4.16963 17.8334L8.95688 18.4635C11.3162 18.774 13.0805 16.3456 12.0561 14.1977L9.97756 9.83946C8.54551 6.83683 12.3372 4.08201 14.7504 6.37183L18.253 9.69545C19.9792 11.3334 22.834 10.4059 23.2677 8.06607L24.1478 3.31842Z" fill="black"/>
</svg>
